<svg xmlns="http://www.w3.org/2000/svg" width="221.155" height="220.908" viewBox="0 0 58.514 58.449"><path d="M165.933 48.732h16.34v7.398h-16.34zm0 0" fill="#5a5a5a"/><path d="M200.311 49.725h-52.415a2.998 2.998 0 0 1-2.999-2.998V4.067a2.998 2.998 0 0 1 2.999-3h52.415a2.998 2.998 0 0 1 2.999 3v42.66a2.998 2.998 0 0 1-2.999 2.998zm0 0" fill="#8f1f8f"/><path d="M203.31 4.067v42.66c0 1.656-1.342 2.999-2.998 2.999h-3.664a3 3 0 0 0 3-3V4.067a3 3 0 0 0-3-2.998h3.664a2.999 2.999 0 0 1 2.998 2.999zm0 0" fill="#8f1f8f"/><path d="M203.31 42.5h-58.413v4.227c0 1.656 1.342 2.999 2.999 2.999h52.415a2.999 2.999 0 0 0 2.999-3zm0 0" fill="#838383"/><path d="M203.31 42.5v4.227a2.998 2.998 0 0 1-2.998 2.998h-3.664c1.657 0 3-1.342 3-2.998V42.5zm0 0" fill="#5a5a5a"/><path d="M203.377 11.297h-58.415V4.066a2.998 2.998 0 0 1 2.998-2.998h52.418a2.998 2.998 0 0 1 2.999 2.998zm0 0" fill="#acacac"/><path d="M203.41 4.012v7.232h-3.729V4.012a2.999 2.999 0 0 0-3-2.998h3.731a2.998 2.998 0 0 1 2.999 2.998zm0 0" fill="#9c9c9c"/><path d="M152.223 6.157a1.706 1.706 0 1 1-3.412 0 1.706 1.706 0 0 1 3.412 0zm0 0" fill="#ff5770"/><path d="M158.81 6.157a1.706 1.706 0 1 1-3.41 0 1.706 1.706 0 0 1 3.41 0zm0 0" fill="#ffd86e"/><path d="M165.398 6.157a1.706 1.706 0 1 1-3.41 0 1.706 1.706 0 0 1 3.41 0zm0 0" fill="#80e0dc"/><path d="M152.223 6.158a1.704 1.704 0 0 1-2.881 1.233 1.704 1.704 0 0 0 1.136-2.938l.04-.001c.942 0 1.705.763 1.705 1.706zm0 0" fill="#ff435f"/><path d="M158.81 6.158a1.705 1.705 0 0 1-2.882 1.233 1.704 1.704 0 0 0 1.138-2.938l.039-.001c.943 0 1.706.763 1.706 1.706zm0 0" fill="#ffb509"/><path d="M165.399 6.158a1.705 1.705 0 0 1-2.883 1.233 1.703 1.703 0 0 0 1.137-2.938l.04-.001c.941 0 1.706.763 1.706 1.706zm0 0" fill="#00a8b0"/><path d="M187.569 59.482h-26.93a.588.588 0 0 1-.589-.588V56.99a2.339 2.339 0 0 1 2.34-2.339h23.428a2.338 2.338 0 0 1 2.338 2.339v1.904a.587.587 0 0 1-.587.588zm0 0" fill="#838383"/><g fill="#5a5a5a"><path d="M188.156 56.99v1.905a.588.588 0 0 1-.587.588h-2.075v-2.494a2.339 2.339 0 0 0-2.339-2.338h2.663a2.338 2.338 0 0 1 2.338 2.338zm0 0"/><path d="M151.174 16.28h-2.345a.882.882 0 0 1 0-1.763h2.345a.882.882 0 1 1 0 1.763zm0 0M156.823 16.28h-2.67a.882.882 0 1 1 0-1.763h2.67a.882.882 0 0 1 0 1.763zm0 0M161.987 20.16h-6.928a.882.882 0 1 1 0-1.764h6.928a.882.882 0 1 1 0 1.764zm0 0M152.223 20.16h-3.394a.882.882 0 0 1 0-1.764h3.394a.882.882 0 1 1 0 1.764zm0 0" fill="#80e0dc"/></g><path d="M184.696 43.787H173.72v2.293c0 .95.77 1.721 1.72 1.721h.04c.95 0 1.721.77 1.721 1.72v6.892a2.007 2.007 0 1 0 4.014 0v-6.891c0-.95.77-1.72 1.72-1.72h.04c.95 0 1.721-.771 1.721-1.722v-2.293zm0 0" fill="#e7e7e7"/><path d="M167.145 38.475h-.07a1.641 1.641 0 0 1-1.64-1.641v-5.08c0-.907.734-1.641 1.64-1.641h.07a1.64 1.64 0 0 1 1.64 1.64v5.08c0 .907-.734 1.642-1.64 1.642zm0 0M198.375 32.31h-.069a1.64 1.64 0 0 1-1.641-1.64v-5.08c0-.907.735-1.641 1.641-1.641h.07c.905 0 1.64.734 1.64 1.64v5.081a1.64 1.64 0 0 1-1.64 1.64zm0 0" fill="#ff5770"/><path d="M168.786 31.754v5.08c0 .907-.735 1.641-1.64 1.641h-.07c-.28 0-.543-.07-.774-.192.516-.278.868-.822.868-1.449v-5.08a1.64 1.64 0 0 0-.868-1.448 1.62 1.62 0 0 1 .774-.194h.07a1.64 1.64 0 0 1 1.64 1.642zm0 0M200.016 25.59v5.08c0 .906-.735 1.64-1.64 1.64h-.07a1.63 1.63 0 0 1-.773-.192c.517-.277.867-.822.867-1.448v-5.08c0-.627-.35-1.17-.867-1.448.231-.124.494-.193.773-.193h.07c.905 0 1.64.734 1.64 1.64zm0 0" fill="#ff435f"/><path d="M164.884 11.297v12.327a2.428 2.428 0 1 0 4.856 0V20.51a1.99 1.99 0 0 1 3.98 0v15.95h10.976V24.883a1.9 1.9 0 1 1 3.799 0v1.662a2.284 2.284 0 0 0 4.568 0V11.297zm0 0" fill="#ff5770"/><path d="M193.064 11.297v15.248a2.28 2.28 0 0 1-2.285 2.284 2.27 2.27 0 0 1-.969-.217 2.285 2.285 0 0 0 1.314-2.067V11.297zm0 0" fill="#ff435f"/><path d="M173.72 36.433h10.976v7.382H173.72zm0 0" fill="#80e0dc"/><g fill="#fff"><path d="M149.078 31.847a6.299 6.299 0 1 0 12.598 0 6.299 6.299 0 0 0-12.598 0zm.485 0c0-.843.182-1.643.504-2.366l2.773 7.598a5.814 5.814 0 0 1-3.277-5.232zm5.814 5.814a5.82 5.82 0 0 1-1.642-.236l1.745-5.069 1.787 4.896a.525.525 0 0 0 .04.079 5.783 5.783 0 0 1-1.93.33zm4.699-5.923c.331-.83.442-1.493.442-2.082 0-.214-.014-.413-.04-.598.454.828.712 1.778.712 2.79a5.809 5.809 0 0 1-2.89 5.024zm-1.254-1.788c.22.387.48.885.48 1.603 0 .498-.148 1.124-.443 1.88l-.58 1.937-2.1-6.249c.35-.019.664-.055.664-.055.314-.037.276-.497-.036-.48 0 0-.942.075-1.55.075-.571 0-1.53-.075-1.53-.075-.314-.017-.35.462-.038.48 0 0 .297.036.61.055l.905 2.482-1.272 3.815-2.117-6.297c.35-.019.666-.055.666-.055.313-.037.275-.497-.037-.48 0 0-.942.075-1.55.075-.11 0-.237-.003-.374-.007a5.808 5.808 0 0 1 8.783-1.094c-.025-.002-.05-.005-.075-.005-.572 0-.976.497-.976 1.032 0 .48.276.884.57 1.363z"/></g></svg>