<svg xmlns="http://www.w3.org/2000/svg" width="58.511" height="58.446" viewBox="0 0 58.511 58.446"><g transform="translate(174.403 -70.039)"><g transform="translate(-174.403 70.039)"><path d="M21.048,47.123H37.4v8.292H21.048Zm0,0" fill="#5a5a5a"/><path d="M55.444,48.684H3a3,3,0,0,1-3-3V3A3,3,0,0,1,3,0H55.443a3,3,0,0,1,3,3V45.683a3,3,0,0,1-3,3Zm0,0" fill="#8f1fb0"/><path d="M58.444,3V45.683a3,3,0,0,1-3,3H51.779a3,3,0,0,0,3-3V3a3,3,0,0,0-3-3h3.665A3,3,0,0,1,58.444,3Zm0,0" fill="rgba(0,0,0,0)"/><path d="M58.444,41.456H0v4.228a3,3,0,0,0,3,3H55.443a3,3,0,0,0,3-3Zm0,0" fill="#838383"/><path d="M58.444,41.455v4.228a3,3,0,0,1-3,3H51.779a3,3,0,0,0,3-3V41.455Zm0,0" fill="#5a5a5a"/><path d="M58.511,10.235H.065V3a3,3,0,0,1,3-3H55.511a3,3,0,0,1,3,3v7.235Zm0,0" fill="#acacac"/><path d="M58.511,3v7.236H54.779V3a3,3,0,0,0-3-3h3.732a3,3,0,0,1,3,3Zm0,0" fill="#9c9c9c"/><path d="M7.33,5.093A1.707,1.707,0,1,1,5.624,3.386,1.707,1.707,0,0,1,7.33,5.093Zm0,0" fill="#ff5770"/><path d="M13.921,5.093a1.707,1.707,0,1,1-1.707-1.707A1.707,1.707,0,0,1,13.921,5.093Zm0,0" fill="#ffd86e"/><path d="M20.512,5.093a1.707,1.707,0,1,1-1.707-1.707A1.707,1.707,0,0,1,20.512,5.093Zm0,0" fill="#80e0dc"/><path d="M7.33,5.093A1.705,1.705,0,0,1,4.447,6.327,1.7,1.7,0,0,0,5.584,3.388h.04A1.705,1.705,0,0,1,7.33,5.093Zm0,0" fill="#ff435f"/><path d="M13.921,5.093a1.706,1.706,0,0,1-2.884,1.234,1.7,1.7,0,0,0,1.138-2.939h.039a1.705,1.705,0,0,1,1.706,1.707Zm0,0" fill="#ffb509"/><path d="M20.512,5.093a1.706,1.706,0,0,1-2.884,1.234,1.705,1.705,0,0,0,1.137-2.939h.04a1.707,1.707,0,0,1,1.707,1.707Zm0,0" fill="#00a8b0"/><path d="M42.694,58.446H15.75a.588.588,0,0,1-.588-.588V55.952a2.34,2.34,0,0,1,2.34-2.34h23.44a2.34,2.34,0,0,1,2.34,2.34v1.906a.588.588,0,0,1-.588.588Zm0,0" fill="#838383"/><path d="M43.282,55.952v1.906a.588.588,0,0,1-.588.588H40.618V55.951a2.34,2.34,0,0,0-2.34-2.339h2.664a2.34,2.34,0,0,1,2.34,2.34Zm0,0" fill="#5a5a5a"/><path d="M.065,10.235H29.1V41.392H.065Zm0,0" fill="#8f1f8f"/><path d="M26.353,10.235H29.1V41.392H26.353Zm0,0" fill="#8f1f8f"/><path d="M9.109,14.608H4.64a.857.857,0,1,1,0-1.714h4.47a.857.857,0,0,1,0,1.714Zm0,0" fill="#80e0dc"/><path d="M14.285,14.608H12.167a.857.857,0,1,1,0-1.714h2.117a.857.857,0,1,1,0,1.714Zm0,0" fill="#80e0dc"/><path d="M11.344,17.722H8.4a.857.857,0,0,1,0-1.714h2.94a.857.857,0,0,1,0,1.714Zm0,0" fill="#80e0dc"/><path d="M12.755,20.948H11.226a.857.857,0,1,1,0-1.714h1.529a.857.857,0,1,1,0,1.714Zm0,0" fill="#80e0dc"/><path d="M25.223,20.948h-2.94a.857.857,0,1,1,0-1.714h2.94a.857.857,0,0,1,0,1.714Zm0,0" fill="#80e0dc"/><path d="M21.106,17.722H14.049a.857.857,0,1,1,0-1.714h7.057a.857.857,0,0,1,0,1.714Zm0,0" fill="#80e0dc"/><path d="M19.577,20.948H15.343a.857.857,0,1,1,0-1.714h4.234a.857.857,0,1,1,0,1.714Zm0,0" fill="#80e0dc"/><path d="M9.109,32.381H4.64a.857.857,0,1,1,0-1.714h4.47a.857.857,0,0,1,0,1.714Zm0,0" fill="#80e0dc"/><path d="M14.285,32.381H12.167a.857.857,0,1,1,0-1.714h2.117a.857.857,0,1,1,0,1.714Zm0,0" fill="#80e0dc"/><path d="M11.344,35.495H8.4a.857.857,0,1,1,0-1.714h2.94a.857.857,0,1,1,0,1.714Zm0,0" fill="#80e0dc"/><path d="M12.755,38.72H11.226a.857.857,0,1,1,0-1.714h1.529a.857.857,0,1,1,0,1.714Zm0,0" fill="#80e0dc"/><path d="M25.223,38.72h-2.94a.857.857,0,1,1,0-1.714h2.94a.857.857,0,1,1,0,1.714Zm0,0" fill="#80e0dc"/><path d="M21.106,35.495H14.049a.857.857,0,1,1,0-1.714h7.057a.857.857,0,1,1,0,1.714Zm0,0" fill="#80e0dc"/><path d="M19.577,38.72H15.343a.857.857,0,1,1,0-1.714h4.234a.857.857,0,1,1,0,1.714Zm0,0" fill="#80e0dc"/><path d="M7.109,24.989H4.64a.857.857,0,0,1,0-1.714h2.47a.857.857,0,0,1,0,1.714Zm0,0" fill="#80e0dc"/><path d="M18.636,24.989H9.579a.857.857,0,0,1,0-1.714h9.057a.857.857,0,0,1,0,1.714Zm0,0" fill="#80e0dc"/><path d="M16.99,28.1H8.4a.857.857,0,0,1,0-1.714h8.586a.857.857,0,0,1,0,1.714Zm0,0" fill="#80e0dc"/><path d="M21.106,28.1H19.46a.857.857,0,0,1,0-1.714h1.646a.857.857,0,0,1,0,1.714Zm0,0" fill="#80e0dc"/><path d="M39.5,34.956H33.854a.857.857,0,0,1,0-1.714H39.5a.857.857,0,0,1,0,1.714Zm0,0" fill="#80e0dc"/><path d="M53.849,34.956H42.675a.857.857,0,0,1,0-1.714H53.849a.857.857,0,0,1,0,1.714Zm0,0" fill="#80e0dc"/><path d="M39.5,38.367H33.854a.857.857,0,0,1,0-1.714H39.5a.857.857,0,0,1,0,1.714Zm0,0" fill="#80e0dc"/><path d="M53.849,38.367H42.675a.857.857,0,0,1,0-1.714H53.849a.857.857,0,1,1,0,1.714Zm0,0" fill="#80e0dc"/><path d="M52.479,30.584H35.224a1.4,1.4,0,0,1-1.4-1.4V15.148a1.4,1.4,0,0,1,1.4-1.4H52.479a1.4,1.4,0,0,1,1.4,1.4V29.187a1.4,1.4,0,0,1-1.4,1.4Zm0,0" fill="#c9f0ff"/><path d="M53.876,15.148V29.187a1.4,1.4,0,0,1-1.4,1.4H50.2a1.4,1.4,0,0,0,1.4-1.4V15.148a1.4,1.4,0,0,0-1.4-1.4h2.283A1.4,1.4,0,0,1,53.876,15.148Zm0,0" fill="#9ae7fd"/><path d="M48.19,21.51l-2.857,2.856-3.762-4.24a.515.515,0,0,0-.749-.022l-7,6.992v2.09a1.4,1.4,0,0,0,1.4,1.4H52.479a1.4,1.4,0,0,0,1.4-1.4V27.1l-4.937-5.564a.515.515,0,0,0-.749-.023Zm0,0" fill="#80e0dc"/><path d="M53.876,27.1v2.09a1.4,1.4,0,0,1-1.4,1.4H50.2a1.4,1.4,0,0,0,1.4-1.4V24.524Zm0,0" fill="#00a8b0"/></g><g transform="translate(-174.403 70.039)"><path d="M21.048,47.123H37.4v8.292H21.048Zm0,0" fill="#5a5a5a"/><path d="M55.444,48.684H3a3,3,0,0,1-3-3V3A3,3,0,0,1,3,0H55.443a3,3,0,0,1,3,3V45.683a3,3,0,0,1-3,3Zm0,0" fill="#8f1fb0"/><path d="M58.444,3V45.683a3,3,0,0,1-3,3H51.779a3,3,0,0,0,3-3V3a3,3,0,0,0-3-3h3.665A3,3,0,0,1,58.444,3Zm0,0" fill="rgba(0,0,0,0)"/><path d="M58.444,41.456H0v4.228a3,3,0,0,0,3,3H55.443a3,3,0,0,0,3-3Zm0,0" fill="#838383"/><path d="M58.444,41.455v4.228a3,3,0,0,1-3,3H51.779a3,3,0,0,0,3-3V41.455Zm0,0" fill="#5a5a5a"/><path d="M58.511,10.235H.065V3a3,3,0,0,1,3-3H55.511a3,3,0,0,1,3,3v7.235Zm0,0" fill="#acacac"/><path d="M58.511,3v7.236H54.779V3a3,3,0,0,0-3-3h3.732a3,3,0,0,1,3,3Zm0,0" fill="#9c9c9c"/><path d="M7.33,5.093A1.707,1.707,0,1,1,5.624,3.386,1.707,1.707,0,0,1,7.33,5.093Zm0,0" fill="#ff5770"/><path d="M13.921,5.093a1.707,1.707,0,1,1-1.707-1.707A1.707,1.707,0,0,1,13.921,5.093Zm0,0" fill="#ffd86e"/><path d="M20.512,5.093a1.707,1.707,0,1,1-1.707-1.707A1.707,1.707,0,0,1,20.512,5.093Zm0,0" fill="#80e0dc"/><path d="M7.33,5.093A1.705,1.705,0,0,1,4.447,6.327,1.7,1.7,0,0,0,5.584,3.388h.04A1.705,1.705,0,0,1,7.33,5.093Zm0,0" fill="#ff435f"/><path d="M13.921,5.093a1.706,1.706,0,0,1-2.884,1.234,1.7,1.7,0,0,0,1.138-2.939h.039a1.705,1.705,0,0,1,1.706,1.707Zm0,0" fill="#ffb509"/><path d="M20.512,5.093a1.706,1.706,0,0,1-2.884,1.234,1.705,1.705,0,0,0,1.137-2.939h.04a1.707,1.707,0,0,1,1.707,1.707Zm0,0" fill="#00a8b0"/><path d="M42.694,58.446H15.75a.588.588,0,0,1-.588-.588V55.952a2.34,2.34,0,0,1,2.34-2.34h23.44a2.34,2.34,0,0,1,2.34,2.34v1.906a.588.588,0,0,1-.588.588Zm0,0" fill="#838383"/><path d="M43.282,55.952v1.906a.588.588,0,0,1-.588.588H40.618V55.951a2.34,2.34,0,0,0-2.34-2.339h2.664a2.34,2.34,0,0,1,2.34,2.34Zm0,0" fill="#5a5a5a"/><path d="M.065,10.235H29.1V41.392H.065Zm0,0" fill="#8f1f8f"/><path d="M26.353,10.235H29.1V41.392H26.353Zm0,0" fill="#8f1f8f"/><path d="M9.109,14.608H4.64a.857.857,0,1,1,0-1.714h4.47a.857.857,0,0,1,0,1.714Zm0,0" fill="#80e0dc"/><path d="M14.285,14.608H12.167a.857.857,0,1,1,0-1.714h2.117a.857.857,0,1,1,0,1.714Zm0,0" fill="#80e0dc"/><path d="M11.344,17.722H8.4a.857.857,0,0,1,0-1.714h2.94a.857.857,0,0,1,0,1.714Zm0,0" fill="#80e0dc"/><path d="M12.755,20.948H11.226a.857.857,0,1,1,0-1.714h1.529a.857.857,0,1,1,0,1.714Zm0,0" fill="#80e0dc"/><path d="M25.223,20.948h-2.94a.857.857,0,1,1,0-1.714h2.94a.857.857,0,0,1,0,1.714Zm0,0" fill="#80e0dc"/><path d="M21.106,17.722H14.049a.857.857,0,1,1,0-1.714h7.057a.857.857,0,0,1,0,1.714Zm0,0" fill="#80e0dc"/><path d="M19.577,20.948H15.343a.857.857,0,1,1,0-1.714h4.234a.857.857,0,1,1,0,1.714Zm0,0" fill="#80e0dc"/><path d="M9.109,32.381H4.64a.857.857,0,1,1,0-1.714h4.47a.857.857,0,0,1,0,1.714Zm0,0" fill="#80e0dc"/><path d="M14.285,32.381H12.167a.857.857,0,1,1,0-1.714h2.117a.857.857,0,1,1,0,1.714Zm0,0" fill="#80e0dc"/><path d="M11.344,35.495H8.4a.857.857,0,1,1,0-1.714h2.94a.857.857,0,1,1,0,1.714Zm0,0" fill="#80e0dc"/><path d="M12.755,38.72H11.226a.857.857,0,1,1,0-1.714h1.529a.857.857,0,1,1,0,1.714Zm0,0" fill="#80e0dc"/><path d="M25.223,38.72h-2.94a.857.857,0,1,1,0-1.714h2.94a.857.857,0,1,1,0,1.714Zm0,0" fill="#80e0dc"/><path d="M21.106,35.495H14.049a.857.857,0,1,1,0-1.714h7.057a.857.857,0,1,1,0,1.714Zm0,0" fill="#80e0dc"/><path d="M19.577,38.72H15.343a.857.857,0,1,1,0-1.714h4.234a.857.857,0,1,1,0,1.714Zm0,0" fill="#80e0dc"/><path d="M7.109,24.989H4.64a.857.857,0,0,1,0-1.714h2.47a.857.857,0,0,1,0,1.714Zm0,0" fill="#80e0dc"/><path d="M18.636,24.989H9.579a.857.857,0,0,1,0-1.714h9.057a.857.857,0,0,1,0,1.714Zm0,0" fill="#80e0dc"/><path d="M16.99,28.1H8.4a.857.857,0,0,1,0-1.714h8.586a.857.857,0,0,1,0,1.714Zm0,0" fill="#80e0dc"/><path d="M21.106,28.1H19.46a.857.857,0,0,1,0-1.714h1.646a.857.857,0,0,1,0,1.714Zm0,0" fill="#80e0dc"/><path d="M39.5,34.956H33.854a.857.857,0,0,1,0-1.714H39.5a.857.857,0,0,1,0,1.714Zm0,0" fill="#80e0dc"/><path d="M53.849,34.956H42.675a.857.857,0,0,1,0-1.714H53.849a.857.857,0,0,1,0,1.714Zm0,0" fill="#80e0dc"/><path d="M39.5,38.367H33.854a.857.857,0,0,1,0-1.714H39.5a.857.857,0,0,1,0,1.714Zm0,0" fill="#80e0dc"/><path d="M53.849,38.367H42.675a.857.857,0,0,1,0-1.714H53.849a.857.857,0,1,1,0,1.714Zm0,0" fill="#80e0dc"/><path d="M52.479,30.584H35.224a1.4,1.4,0,0,1-1.4-1.4V15.148a1.4,1.4,0,0,1,1.4-1.4H52.479a1.4,1.4,0,0,1,1.4,1.4V29.187a1.4,1.4,0,0,1-1.4,1.4Zm0,0" fill="#c9f0ff"/><path d="M53.876,15.148V29.187a1.4,1.4,0,0,1-1.4,1.4H50.2a1.4,1.4,0,0,0,1.4-1.4V15.148a1.4,1.4,0,0,0-1.4-1.4h2.283A1.4,1.4,0,0,1,53.876,15.148Zm0,0" fill="#9ae7fd"/><path d="M48.19,21.51l-2.857,2.856-3.762-4.24a.515.515,0,0,0-.749-.022l-7,6.992v2.09a1.4,1.4,0,0,0,1.4,1.4H52.479a1.4,1.4,0,0,0,1.4-1.4V27.1l-4.937-5.564a.515.515,0,0,0-.749-.023Zm0,0" fill="#80e0dc"/><path d="M53.876,27.1v2.09a1.4,1.4,0,0,1-1.4,1.4H50.2a1.4,1.4,0,0,0,1.4-1.4V24.524Zm0,0" fill="#00a8b0"/></g><g transform="translate(-174.403 70.039)"><path d="M21.048,47.123H37.4v8.292H21.048Zm0,0" fill="#5a5a5a"/><path d="M55.444,48.684H3a3,3,0,0,1-3-3V3A3,3,0,0,1,3,0H55.443a3,3,0,0,1,3,3V45.683a3,3,0,0,1-3,3Zm0,0" fill="#8f1fb0"/><path d="M58.444,3V45.683a3,3,0,0,1-3,3H51.779a3,3,0,0,0,3-3V3a3,3,0,0,0-3-3h3.665A3,3,0,0,1,58.444,3Zm0,0" fill="rgba(0,0,0,0)"/><path d="M58.444,41.456H0v4.228a3,3,0,0,0,3,3H55.443a3,3,0,0,0,3-3Zm0,0" fill="#838383"/><path d="M58.444,41.455v4.228a3,3,0,0,1-3,3H51.779a3,3,0,0,0,3-3V41.455Zm0,0" fill="#5a5a5a"/><path d="M58.511,10.235H.065V3a3,3,0,0,1,3-3H55.511a3,3,0,0,1,3,3v7.235Zm0,0" fill="#acacac"/><path d="M58.511,3v7.236H54.779V3a3,3,0,0,0-3-3h3.732a3,3,0,0,1,3,3Zm0,0" fill="#9c9c9c"/><path d="M7.33,5.093A1.707,1.707,0,1,1,5.624,3.386,1.707,1.707,0,0,1,7.33,5.093Zm0,0" fill="#ff5770"/><path d="M13.921,5.093a1.707,1.707,0,1,1-1.707-1.707A1.707,1.707,0,0,1,13.921,5.093Zm0,0" fill="#ffd86e"/><path d="M20.512,5.093a1.707,1.707,0,1,1-1.707-1.707A1.707,1.707,0,0,1,20.512,5.093Zm0,0" fill="#80e0dc"/><path d="M7.33,5.093A1.705,1.705,0,0,1,4.447,6.327,1.7,1.7,0,0,0,5.584,3.388h.04A1.705,1.705,0,0,1,7.33,5.093Zm0,0" fill="#ff435f"/><path d="M13.921,5.093a1.706,1.706,0,0,1-2.884,1.234,1.7,1.7,0,0,0,1.138-2.939h.039a1.705,1.705,0,0,1,1.706,1.707Zm0,0" fill="#ffb509"/><path d="M20.512,5.093a1.706,1.706,0,0,1-2.884,1.234,1.705,1.705,0,0,0,1.137-2.939h.04a1.707,1.707,0,0,1,1.707,1.707Zm0,0" fill="#00a8b0"/><path d="M42.694,58.446H15.75a.588.588,0,0,1-.588-.588V55.952a2.34,2.34,0,0,1,2.34-2.34h23.44a2.34,2.34,0,0,1,2.34,2.34v1.906a.588.588,0,0,1-.588.588Zm0,0" fill="#838383"/><path d="M43.282,55.952v1.906a.588.588,0,0,1-.588.588H40.618V55.951a2.34,2.34,0,0,0-2.34-2.339h2.664a2.34,2.34,0,0,1,2.34,2.34Zm0,0" fill="#5a5a5a"/><path d="M.065,10.235H29.1V41.392H.065Zm0,0" fill="#8f1f8f"/><path d="M26.353,10.235H29.1V41.392H26.353Zm0,0" fill="#8f1f8f"/><path d="M9.109,14.608H4.64a.857.857,0,1,1,0-1.714h4.47a.857.857,0,0,1,0,1.714Zm0,0" fill="#80e0dc"/><path d="M14.285,14.608H12.167a.857.857,0,1,1,0-1.714h2.117a.857.857,0,1,1,0,1.714Zm0,0" fill="#80e0dc"/><path d="M11.344,17.722H8.4a.857.857,0,0,1,0-1.714h2.94a.857.857,0,0,1,0,1.714Zm0,0" fill="#80e0dc"/><path d="M12.755,20.948H11.226a.857.857,0,1,1,0-1.714h1.529a.857.857,0,1,1,0,1.714Zm0,0" fill="#80e0dc"/><path d="M25.223,20.948h-2.94a.857.857,0,1,1,0-1.714h2.94a.857.857,0,0,1,0,1.714Zm0,0" fill="#80e0dc"/><path d="M21.106,17.722H14.049a.857.857,0,1,1,0-1.714h7.057a.857.857,0,0,1,0,1.714Zm0,0" fill="#80e0dc"/><path d="M19.577,20.948H15.343a.857.857,0,1,1,0-1.714h4.234a.857.857,0,1,1,0,1.714Zm0,0" fill="#80e0dc"/><path d="M9.109,32.381H4.64a.857.857,0,1,1,0-1.714h4.47a.857.857,0,0,1,0,1.714Zm0,0" fill="#80e0dc"/><path d="M14.285,32.381H12.167a.857.857,0,1,1,0-1.714h2.117a.857.857,0,1,1,0,1.714Zm0,0" fill="#80e0dc"/><path d="M11.344,35.495H8.4a.857.857,0,1,1,0-1.714h2.94a.857.857,0,1,1,0,1.714Zm0,0" fill="#80e0dc"/><path d="M12.755,38.72H11.226a.857.857,0,1,1,0-1.714h1.529a.857.857,0,1,1,0,1.714Zm0,0" fill="#80e0dc"/><path d="M25.223,38.72h-2.94a.857.857,0,1,1,0-1.714h2.94a.857.857,0,1,1,0,1.714Zm0,0" fill="#80e0dc"/><path d="M21.106,35.495H14.049a.857.857,0,1,1,0-1.714h7.057a.857.857,0,1,1,0,1.714Zm0,0" fill="#80e0dc"/><path d="M19.577,38.72H15.343a.857.857,0,1,1,0-1.714h4.234a.857.857,0,1,1,0,1.714Zm0,0" fill="#80e0dc"/><path d="M7.109,24.989H4.64a.857.857,0,0,1,0-1.714h2.47a.857.857,0,0,1,0,1.714Zm0,0" fill="#80e0dc"/><path d="M18.636,24.989H9.579a.857.857,0,0,1,0-1.714h9.057a.857.857,0,0,1,0,1.714Zm0,0" fill="#80e0dc"/><path d="M16.99,28.1H8.4a.857.857,0,0,1,0-1.714h8.586a.857.857,0,0,1,0,1.714Zm0,0" fill="#80e0dc"/><path d="M21.106,28.1H19.46a.857.857,0,0,1,0-1.714h1.646a.857.857,0,0,1,0,1.714Zm0,0" fill="#80e0dc"/><path d="M39.5,34.956H33.854a.857.857,0,0,1,0-1.714H39.5a.857.857,0,0,1,0,1.714Zm0,0" fill="#80e0dc"/><path d="M53.849,34.956H42.675a.857.857,0,0,1,0-1.714H53.849a.857.857,0,0,1,0,1.714Zm0,0" fill="#80e0dc"/><path d="M39.5,38.367H33.854a.857.857,0,0,1,0-1.714H39.5a.857.857,0,0,1,0,1.714Zm0,0" fill="#80e0dc"/><path d="M53.849,38.367H42.675a.857.857,0,0,1,0-1.714H53.849a.857.857,0,1,1,0,1.714Zm0,0" fill="#80e0dc"/><path d="M52.479,30.584H35.224a1.4,1.4,0,0,1-1.4-1.4V15.148a1.4,1.4,0,0,1,1.4-1.4H52.479a1.4,1.4,0,0,1,1.4,1.4V29.187a1.4,1.4,0,0,1-1.4,1.4Zm0,0" fill="#c9f0ff"/><path d="M53.876,15.148V29.187a1.4,1.4,0,0,1-1.4,1.4H50.2a1.4,1.4,0,0,0,1.4-1.4V15.148a1.4,1.4,0,0,0-1.4-1.4h2.283A1.4,1.4,0,0,1,53.876,15.148Zm0,0" fill="#9ae7fd"/><path d="M48.19,21.51l-2.857,2.856-3.762-4.24a.515.515,0,0,0-.749-.022l-7,6.992v2.09a1.4,1.4,0,0,0,1.4,1.4H52.479a1.4,1.4,0,0,0,1.4-1.4V27.1l-4.937-5.564a.515.515,0,0,0-.749-.023Zm0,0" fill="#80e0dc"/><path d="M53.876,27.1v2.09a1.4,1.4,0,0,1-1.4,1.4H50.2a1.4,1.4,0,0,0,1.4-1.4V24.524Zm0,0" fill="#00a8b0"/></g></g></svg>