<svg xmlns="http://www.w3.org/2000/svg" width="58.511" height="58.466" viewBox="0 0 58.511 58.466"><g transform="translate(29.506 -71.053)"><g transform="translate(-29.506 71.053)"><path d="M21.036,47.716H37.375v7.4H21.036Zm0,0" fill="#5a5a5a"/><path d="M55.412,48.709H3a3,3,0,0,1-3-3V3.052a3,3,0,0,1,3-3H55.412a3,3,0,0,1,3,3V45.711a3,3,0,0,1-3,3Zm0,0" fill="#8f1f8f"/><path d="M58.411,3.053V45.711a3,3,0,0,1-3,3H51.749a3,3,0,0,0,3-3V3.053a3,3,0,0,0-3-3h3.663A3,3,0,0,1,58.411,3.053Zm0,0" fill="#8f1f8f"/><path d="M58.41,41.485H0v4.226a3,3,0,0,0,3,3H55.412a3,3,0,0,0,3-3Zm0,0" fill="#838383"/><path d="M58.411,41.485v4.226a3,3,0,0,1-3,3H51.749a3,3,0,0,0,3-3V41.485Zm0,0" fill="#5a5a5a"/><path d="M58.477,10.283H.065V3.052a3,3,0,0,1,3-3H55.479a3,3,0,0,1,3,3Zm0,0" fill="#acacac"/><path d="M58.511,3v7.232h-3.73V3a3,3,0,0,0-3-3h3.73A3,3,0,0,1,58.511,3Zm0,0" fill="#9c9c9c"/><path d="M7.326,5.143A1.706,1.706,0,1,1,5.62,3.437,1.706,1.706,0,0,1,7.326,5.143Zm0,0" fill="#ff5770"/><path d="M13.913,5.143a1.705,1.705,0,1,1-1.706-1.706A1.706,1.706,0,0,1,13.913,5.143Zm0,0" fill="#ffd86e"/><path d="M20.5,5.143A1.705,1.705,0,1,1,18.8,3.437,1.705,1.705,0,0,1,20.5,5.143Zm0,0" fill="#80e0dc"/><path d="M7.326,5.143A1.7,1.7,0,0,1,4.444,6.377,1.7,1.7,0,0,0,5.581,3.439h.04a1.7,1.7,0,0,1,1.7,1.706Zm0,0" fill="#ff435f"/><path d="M13.913,5.143a1.705,1.705,0,0,1-2.882,1.233,1.7,1.7,0,0,0,1.138-2.938h.039a1.7,1.7,0,0,1,1.706,1.706Zm0,0" fill="#ffb509"/><path d="M20.5,5.143a1.705,1.705,0,0,1-2.882,1.233,1.7,1.7,0,0,0,1.137-2.938h.04A1.706,1.706,0,0,1,20.5,5.143Zm0,0" fill="#00a8b0"/><path d="M42.67,58.466H15.741a.588.588,0,0,1-.588-.588v-1.9a2.339,2.339,0,0,1,2.339-2.338H40.919a2.338,2.338,0,0,1,2.338,2.338v1.9a.587.587,0,0,1-.587.588Zm0,0" fill="#838383"/><path d="M43.257,55.973v1.906a.588.588,0,0,1-.587.588H40.595V55.973a2.339,2.339,0,0,0-2.338-2.338h2.663a2.338,2.338,0,0,1,2.338,2.338Zm0,0" fill="#5a5a5a"/><path d="M6.277,15.266H3.931a.882.882,0,0,1,0-1.763H6.277a.882.882,0,0,1,0,1.763Zm0,0" fill="#80e0dc"/><path d="M11.925,15.266H9.255a.882.882,0,0,1,0-1.763h2.67a.882.882,0,1,1,0,1.763Zm0,0" fill="#80e0dc"/><path d="M17.089,19.145H10.162a.882.882,0,0,1,0-1.763h6.927a.882.882,0,0,1,0,1.763Zm0,0" fill="#80e0dc"/><path d="M7.326,19.145H3.931a.882.882,0,0,1,0-1.763H7.326a.882.882,0,0,1,0,1.763Zm0,0" fill="#80e0dc"/><path d="M39.8,42.772H28.821v2.293a1.721,1.721,0,0,0,1.72,1.721h.041a1.72,1.72,0,0,1,1.72,1.72V55.4a2.007,2.007,0,1,0,4.013,0V48.506a1.72,1.72,0,0,1,1.72-1.72h.041a1.721,1.721,0,0,0,1.72-1.721V42.772Zm0,0" fill="#e7e7e7"/><path d="M22.247,37.459h-.069a1.641,1.641,0,0,1-1.641-1.641v-5.08A1.641,1.641,0,0,1,22.177,29.1h.069a1.641,1.641,0,0,1,1.641,1.641v5.08A1.641,1.641,0,0,1,22.247,37.459Zm0,0" fill="#ff5770"/><path d="M53.476,31.3h-.069a1.641,1.641,0,0,1-1.641-1.641v-5.08a1.641,1.641,0,0,1,1.641-1.641h.069a1.641,1.641,0,0,1,1.641,1.641v5.08A1.641,1.641,0,0,1,53.476,31.3Zm0,0" fill="#ff5770"/><path d="M23.888,30.738v5.081a1.641,1.641,0,0,1-1.641,1.641h-.069a1.635,1.635,0,0,1-.774-.193,1.643,1.643,0,0,0,.867-1.448V30.738a1.64,1.64,0,0,0-.867-1.447,1.62,1.62,0,0,1,.774-.194h.069A1.641,1.641,0,0,1,23.888,30.738Zm0,0" fill="#ff435f"/><path d="M55.117,24.575v5.08A1.641,1.641,0,0,1,53.476,31.3h-.07a1.63,1.63,0,0,1-.772-.193,1.641,1.641,0,0,0,.866-1.448v-5.08a1.642,1.642,0,0,0-.866-1.448,1.635,1.635,0,0,1,.772-.193h.07a1.641,1.641,0,0,1,1.641,1.641Zm0,0" fill="#ff435f"/><path d="M19.986,10.283V22.609a2.428,2.428,0,1,0,4.856,0V19.5a1.99,1.99,0,0,1,3.98,0v15.95H39.8V23.868a1.9,1.9,0,1,1,3.8,0v1.661a2.284,2.284,0,1,0,4.568,0V10.283Zm0,0" fill="#ff5770"/><path d="M48.165,10.283V25.53A2.284,2.284,0,0,1,44.911,27.6a2.282,2.282,0,0,0,1.314-2.068V10.283Zm0,0" fill="#ff435f"/><path d="M28.821,35.417H39.8V42.8H28.821Zm0,0" fill="#80e0dc"/></g><g transform="translate(-25.325 95.587)"><path d="M0,6.3A6.3,6.3,0,1,0,6.3,0,6.3,6.3,0,0,0,0,6.3Zm.485,0a5.8,5.8,0,0,1,.5-2.366l2.773,7.6A5.813,5.813,0,0,1,.485,6.3ZM6.3,12.113a5.82,5.82,0,0,1-1.642-.236L6.4,6.808l1.787,4.9a.525.525,0,0,0,.041.079A5.783,5.783,0,0,1,6.3,12.113ZM11,6.19a5.491,5.491,0,0,0,.443-2.082,4.325,4.325,0,0,0-.04-.6,5.815,5.815,0,0,1-2.178,7.814ZM9.744,4.4a3.066,3.066,0,0,1,.48,1.6,5.425,5.425,0,0,1-.442,1.88L9.2,9.822,7.1,3.574c.351-.019.665-.056.665-.056a.241.241,0,0,0-.036-.48s-.942.074-1.55.074c-.571,0-1.531-.074-1.531-.074a.241.241,0,0,0-.037.48s.3.036.611.056l.9,2.482L4.854,9.87l-2.118-6.3c.351-.019.666-.056.666-.056a.241.241,0,0,0-.037-.48s-.941.074-1.55.074c-.109,0-.237,0-.374-.007a5.811,5.811,0,0,1,8.783-1.094c-.025,0-.05,0-.075,0a1.006,1.006,0,0,0-.977,1.031A2.722,2.722,0,0,0,9.744,4.4Z" fill="#fff"/></g></g></svg>