<svg xmlns="http://www.w3.org/2000/svg" width="221.155" height="221.155" viewBox="0 0 58.514 58.514"><path d="M55.51 0H3.004A3.003 3.003 0 0 0 0 3.004V55.51a3.003 3.003 0 0 0 3.004 3.003H55.51a3.003 3.003 0 0 0 3.003-3.003V3.004A3.003 3.003 0 0 0 55.51 0zm0 0" fill="#8f1f8f"/><path d="M58.514 3.003V55.51a3.004 3.004 0 0 1-3.004 3.004h-3.096a3.004 3.004 0 0 0 3.004-3.004V3.003A3.004 3.004 0 0 0 52.414 0h3.096a3.003 3.003 0 0 1 3.004 3.003zm0 0" fill="#8f1f8f"/><path d="M58.513 10.247H0V3.004A3.003 3.003 0 0 1 3.004 0H55.51a3.003 3.003 0 0 1 3.003 3.004zm0 0" fill="#acacac"/><path d="M58.514 3.003v7.244h-3.096V3.003A3.003 3.003 0 0 0 52.414 0h3.096a3.003 3.003 0 0 1 3.004 3.003zm0 0" fill="#9c9c9c"/><path d="M7.274 5.099a1.709 1.709 0 1 1-3.418 0 1.709 1.709 0 0 1 3.418 0zm0 0" fill="#ff5770"/><path d="M13.872 5.099a1.709 1.709 0 1 1-3.417 0 1.709 1.709 0 0 1 3.417 0zm0 0" fill="#ffd86e"/><path d="M20.47 5.099a1.709 1.709 0 1 1-3.416 0 1.709 1.709 0 0 1 3.417 0zm0 0" fill="#80e0dc"/><path d="M7.273 5.1a1.707 1.707 0 0 1-2.886 1.234 1.707 1.707 0 0 0 1.138-2.943h.04c.944 0 1.708.764 1.708 1.708zm0 0" fill="#ff435f"/><path d="M13.872 5.1a1.707 1.707 0 0 1-2.887 1.234 1.707 1.707 0 0 0 1.14-2.943h.038c.944 0 1.709.764 1.709 1.708zm0 0" fill="#ffb509"/><path d="M20.47 5.1a1.708 1.708 0 0 1-2.887 1.234 1.706 1.706 0 0 0 1.14-2.943h.04c.943 0 1.708.764 1.708 1.708zm0 0" fill="#00a8b0"/><path d="M51.79 6.922H28.377a1.766 1.766 0 1 1 0-3.532H51.79a1.766 1.766 0 1 1 0 3.532zm0 0" fill="#c9f0ff"/><path d="M53.555 5.156a1.765 1.765 0 0 1-1.765 1.766h-2.832a1.764 1.764 0 0 0 1.765-1.766c0-.975-.79-1.765-1.765-1.765h2.832c.975 0 1.765.79 1.765 1.765zm0 0" fill="#9ae7fd"/><g fill="#0396fd"><path d="M20.47 17.025H5.566a.857.857 0 0 1 0-1.714H20.47a.857.857 0 1 1 0 1.714zm0 0M20.47 21.167H5.566a.857.857 0 0 1 0-1.714H20.47a.857.857 0 1 1 0 1.714zm0 0M20.47 25.31H5.566a.857.857 0 0 1 0-1.715H20.47a.857.857 0 1 1 0 1.715zm0 0M20.47 29.452H5.566a.857.857 0 0 1 0-1.714H20.47a.857.857 0 1 1 0 1.714zm0 0M20.47 33.594H5.566a.857.857 0 0 1 0-1.714H20.47a.857.857 0 1 1 0 1.714zm0 0M20.47 37.737H5.566a.857.857 0 0 1 0-1.714H20.47a.857.857 0 1 1 0 1.714zm0 0M20.47 41.88H5.566a.857.857 0 0 1 0-1.715H20.47a.857.857 0 1 1 0 1.714zm0 0M20.47 46.022H5.566a.857.857 0 0 1 0-1.715H20.47a.857.857 0 1 1 0 1.715zm0 0M20.47 50.164H5.566a.857.857 0 0 1 0-1.714H20.47a.857.857 0 1 1 0 1.714zm0 0M20.47 54.306H5.566a.857.857 0 0 1 0-1.714H20.47a.857.857 0 1 1 0 1.714zm0 0"/></g><path d="M25.598 55.741a.857.857 0 0 1-.857-.857V14.732a.857.857 0 0 1 1.714 0v40.152a.857.857 0 0 1-.857.857zm0 0" fill="#838383"/><path d="M52.751 26.023H31.583a.941.941 0 0 1-.942-.941v-7.973c0-.52.422-.941.942-.941H52.75c.52 0 .942.421.942.941v7.973c0 .52-.422.941-.942.941zm0 0" fill="#c9f0ff"/><path d="M53.693 17.109v7.972c0 .52-.422.942-.942.942h-2.838c.52 0 .941-.422.941-.942V17.11c0-.52-.422-.94-.941-.94h2.838c.52 0 .942.42.942.94zm0 0" fill="#9ae7fd"/><path d="M32.868 26.023l6.317-6.315a.706.706 0 0 1 1.028.031l5.576 6.284zm0 0" fill="#00a8b0"/><path d="M41.007 26.023l5.013-5.01a.707.707 0 0 1 1.028.03l4.419 4.98zm0 0" fill="#00a8b0"/><path d="M34.867 31.874H30.64a.857.857 0 1 1 0-1.714h4.226a.857.857 0 0 1 0 1.714zm0 0M45.48 31.874h-7.66a.857.857 0 1 1 0-1.714h7.66a.857.857 0 0 1 0 1.714zm0 0M53.693 31.874H49.03a.857.857 0 1 1 0-1.714h4.662a.857.857 0 1 1 0 1.714zm0 0M35.995 35.227h-5.354a.857.857 0 1 1 0-1.715h5.354a.857.857 0 0 1 0 1.715zm0 0M48.488 35.227h-9.072a.857.857 0 1 1 0-1.715h9.072a.857.857 0 1 1 0 1.715zm0 0M53.693 35.227H51.61a.857.857 0 1 1 0-1.715h2.082a.857.857 0 1 1 0 1.715zm0 0" fill="#80e0dc"/><path d="M52.751 54.23H31.583a.941.941 0 0 1-.942-.94V39.557c0-.52.422-.942.942-.942H52.75c.52 0 .942.422.942.942v13.731c0 .52-.422.942-.942.942zm0 0" fill="#ff5770"/><path d="M53.693 39.558v13.73c0 .521-.422.943-.942.943h-2.47c.52 0 .941-.422.941-.942V39.558a.942.942 0 0 0-.942-.942h2.471c.52 0 .942.421.942.942zm0 0" fill="#ff435f"/><path d="M44.8 45.71l-4.442-2.563a.823.823 0 0 0-1.235.713v5.127a.824.824 0 0 0 1.235.714l4.441-2.564a.823.823 0 0 0 0-1.427zm0 0" fill="#e7e7e7"/><path d="M44.799 47.137l-4.44 2.564a.823.823 0 0 1-1.235-.714v-.666l5.098-2.944.577.333a.823.823 0 0 1 0 1.427zm0 0" fill="#cecece"/><g><path d="M55.51 0H3.004A3.003 3.003 0 0 0 0 3.004V55.51a3.003 3.003 0 0 0 3.004 3.003H55.51a3.003 3.003 0 0 0 3.003-3.003V3.004A3.003 3.003 0 0 0 55.51 0zm0 0" fill="#8f1f8f"/><path d="M58.514 3.003V55.51a3.004 3.004 0 0 1-3.004 3.004h-3.096a3.004 3.004 0 0 0 3.004-3.004V3.003A3.004 3.004 0 0 0 52.414 0h3.096a3.003 3.003 0 0 1 3.004 3.003zm0 0" fill="#8f1f8f"/><path d="M58.513 10.247H0V3.004A3.003 3.003 0 0 1 3.004 0H55.51a3.003 3.003 0 0 1 3.003 3.004zm0 0" fill="#acacac"/><path d="M58.514 3.003v7.244h-3.096V3.003A3.003 3.003 0 0 0 52.414 0h3.096a3.003 3.003 0 0 1 3.004 3.003zm0 0" fill="#9c9c9c"/><path d="M7.274 5.099a1.709 1.709 0 1 1-3.418 0 1.709 1.709 0 0 1 3.418 0zm0 0" fill="#ff5770"/><path d="M13.872 5.099a1.709 1.709 0 1 1-3.417 0 1.709 1.709 0 0 1 3.417 0zm0 0" fill="#ffd86e"/><path d="M20.47 5.099a1.709 1.709 0 1 1-3.416 0 1.709 1.709 0 0 1 3.417 0zm0 0" fill="#80e0dc"/><path d="M7.273 5.1a1.707 1.707 0 0 1-2.886 1.234 1.707 1.707 0 0 0 1.138-2.943h.04c.944 0 1.708.764 1.708 1.708zm0 0" fill="#ff435f"/><path d="M13.872 5.1a1.707 1.707 0 0 1-2.887 1.234 1.707 1.707 0 0 0 1.14-2.943h.038c.944 0 1.709.764 1.709 1.708zm0 0" fill="#ffb509"/><path d="M20.47 5.1a1.708 1.708 0 0 1-2.887 1.234 1.706 1.706 0 0 0 1.14-2.943h.04c.943 0 1.708.764 1.708 1.708zm0 0" fill="#00a8b0"/><path d="M51.79 6.922H28.377a1.766 1.766 0 1 1 0-3.532H51.79a1.766 1.766 0 1 1 0 3.532zm0 0" fill="#c9f0ff"/><path d="M53.555 5.156a1.765 1.765 0 0 1-1.765 1.766h-2.832a1.764 1.764 0 0 0 1.765-1.766c0-.975-.79-1.765-1.765-1.765h2.832c.975 0 1.765.79 1.765 1.765zm0 0" fill="#9ae7fd"/><g fill="#0396fd"><path d="M20.47 17.025H5.566a.857.857 0 0 1 0-1.714H20.47a.857.857 0 1 1 0 1.714zm0 0M20.47 21.167H5.566a.857.857 0 0 1 0-1.714H20.47a.857.857 0 1 1 0 1.714zm0 0M20.47 25.31H5.566a.857.857 0 0 1 0-1.715H20.47a.857.857 0 1 1 0 1.715zm0 0M20.47 29.452H5.566a.857.857 0 0 1 0-1.714H20.47a.857.857 0 1 1 0 1.714zm0 0M20.47 33.594H5.566a.857.857 0 0 1 0-1.714H20.47a.857.857 0 1 1 0 1.714zm0 0M20.47 37.737H5.566a.857.857 0 0 1 0-1.714H20.47a.857.857 0 1 1 0 1.714zm0 0M20.47 41.88H5.566a.857.857 0 0 1 0-1.715H20.47a.857.857 0 1 1 0 1.714zm0 0M20.47 46.022H5.566a.857.857 0 0 1 0-1.715H20.47a.857.857 0 1 1 0 1.715zm0 0M20.47 50.164H5.566a.857.857 0 0 1 0-1.714H20.47a.857.857 0 1 1 0 1.714zm0 0M20.47 54.306H5.566a.857.857 0 0 1 0-1.714H20.47a.857.857 0 1 1 0 1.714zm0 0"/></g><path d="M25.598 55.741a.857.857 0 0 1-.857-.857V14.732a.857.857 0 0 1 1.714 0v40.152a.857.857 0 0 1-.857.857zm0 0" fill="#838383"/><path d="M52.751 26.023H31.583a.941.941 0 0 1-.942-.941v-7.973c0-.52.422-.941.942-.941H52.75c.52 0 .942.421.942.941v7.973c0 .52-.422.941-.942.941zm0 0" fill="#c9f0ff"/><path d="M53.693 17.109v7.972c0 .52-.422.942-.942.942h-2.838c.52 0 .941-.422.941-.942V17.11c0-.52-.422-.94-.941-.94h2.838c.52 0 .942.42.942.94zm0 0" fill="#9ae7fd"/><path d="M32.868 26.023l6.317-6.315a.706.706 0 0 1 1.028.031l5.576 6.284zm0 0" fill="#00a8b0"/><path d="M41.007 26.023l5.013-5.01a.707.707 0 0 1 1.028.03l4.419 4.98zm0 0" fill="#00a8b0"/><path d="M34.867 31.874H30.64a.857.857 0 1 1 0-1.714h4.226a.857.857 0 0 1 0 1.714zm0 0M45.48 31.874h-7.66a.857.857 0 1 1 0-1.714h7.66a.857.857 0 0 1 0 1.714zm0 0M53.693 31.874H49.03a.857.857 0 1 1 0-1.714h4.662a.857.857 0 1 1 0 1.714zm0 0M35.995 35.227h-5.354a.857.857 0 1 1 0-1.715h5.354a.857.857 0 0 1 0 1.715zm0 0M48.488 35.227h-9.072a.857.857 0 1 1 0-1.715h9.072a.857.857 0 1 1 0 1.715zm0 0M53.693 35.227H51.61a.857.857 0 1 1 0-1.715h2.082a.857.857 0 1 1 0 1.715zm0 0" fill="#80e0dc"/><path d="M52.751 54.23H31.583a.941.941 0 0 1-.942-.94V39.557c0-.52.422-.942.942-.942H52.75c.52 0 .942.422.942.942v13.731c0 .52-.422.942-.942.942zm0 0" fill="#ff5770"/><path d="M53.693 39.558v13.73c0 .521-.422.943-.942.943h-2.47c.52 0 .941-.422.941-.942V39.558a.942.942 0 0 0-.942-.942h2.471c.52 0 .942.421.942.942zm0 0" fill="#ff435f"/><path d="M44.8 45.71l-4.442-2.563a.823.823 0 0 0-1.235.713v5.127a.824.824 0 0 0 1.235.714l4.441-2.564a.823.823 0 0 0 0-1.427zm0 0" fill="#e7e7e7"/><path d="M44.799 47.137l-4.44 2.564a.823.823 0 0 1-1.235-.714v-.666l5.098-2.944.577.333a.823.823 0 0 1 0 1.427zm0 0" fill="#cecece"/></g></svg>