<svg xmlns="http://www.w3.org/2000/svg" width="58.511" height="58.511" viewBox="0 0 58.511 58.511"><g transform="translate(99.954 -70.741)"><g transform="translate(-99.954 70.741)"><path d="M55.508,0H3A3,3,0,0,0,0,3v52.5a3,3,0,0,0,3,3h52.5a3,3,0,0,0,3-3V3A3,3,0,0,0,55.508,0Zm0,0" fill="#8f1f8f"/><path d="M58.511,3v52.5a3,3,0,0,1-3,3h-3.1a3,3,0,0,0,3-3V3a3,3,0,0,0-3-3h3.1A3,3,0,0,1,58.511,3Zm0,0" fill="#8f1f8f"/><path d="M58.511,10.247H0V3A3,3,0,0,1,3,0h52.5a3,3,0,0,1,3,3Zm0,0" fill="#acacac"/><path d="M58.511,3v7.244h-3.1V3a3,3,0,0,0-3-3h3.1A3,3,0,0,1,58.511,3Zm0,0" fill="#9c9c9c"/><path d="M7.273,5.1A1.709,1.709,0,1,1,5.564,3.39,1.709,1.709,0,0,1,7.273,5.1Zm0,0" fill="#ff5770"/><path d="M13.872,5.1A1.709,1.709,0,1,1,12.163,3.39,1.708,1.708,0,0,1,13.872,5.1Zm0,0" fill="#ffd86e"/><path d="M20.47,5.1A1.709,1.709,0,1,1,18.762,3.39,1.708,1.708,0,0,1,20.47,5.1Zm0,0" fill="#80e0dc"/><path d="M7.273,5.1A1.707,1.707,0,0,1,4.387,6.334,1.707,1.707,0,0,0,5.525,3.391h.04A1.708,1.708,0,0,1,7.273,5.1Zm0,0" fill="#ff435f"/><path d="M13.871,5.1a1.708,1.708,0,0,1-2.887,1.235,1.707,1.707,0,0,0,1.14-2.943h.039A1.708,1.708,0,0,1,13.871,5.1Zm0,0" fill="#ffb509"/><path d="M20.47,5.1a1.708,1.708,0,0,1-2.887,1.235,1.707,1.707,0,0,0,1.139-2.943h.04A1.709,1.709,0,0,1,20.47,5.1Zm0,0" fill="#00a8b0"/><path d="M51.788,6.922H28.376a1.766,1.766,0,1,1,0-3.532H51.788a1.766,1.766,0,1,1,0,3.532Zm0,0" fill="#c9f0ff"/><path d="M53.553,5.156a1.764,1.764,0,0,1-1.765,1.766H48.956a1.766,1.766,0,0,0,0-3.531h2.832A1.765,1.765,0,0,1,53.553,5.156Zm0,0" fill="#9ae7fd"/><path d="M20.47,17.024H5.564a.857.857,0,0,1,0-1.714H20.47a.857.857,0,0,1,0,1.714Zm0,0" fill="#0396fd"/><path d="M20.47,21.166H5.564a.857.857,0,0,1,0-1.714H20.47a.857.857,0,0,1,0,1.714Zm0,0" fill="#0396fd"/><path d="M20.47,25.309H5.564a.857.857,0,0,1,0-1.714H20.47a.857.857,0,0,1,0,1.714Zm0,0" fill="#0396fd"/><path d="M20.47,29.451H5.564a.857.857,0,1,1,0-1.714H20.47a.857.857,0,0,1,0,1.714Zm0,0" fill="#0396fd"/><path d="M20.47,33.593H5.564a.857.857,0,1,1,0-1.714H20.47a.857.857,0,1,1,0,1.714Zm0,0" fill="#0396fd"/><path d="M20.47,37.735H5.564a.857.857,0,1,1,0-1.714H20.47a.857.857,0,1,1,0,1.714Zm0,0" fill="#0396fd"/><path d="M20.47,41.877H5.564a.857.857,0,1,1,0-1.714H20.47a.857.857,0,1,1,0,1.714Zm0,0" fill="#0396fd"/><path d="M20.47,46.02H5.564a.857.857,0,1,1,0-1.714H20.47a.857.857,0,1,1,0,1.714Zm0,0" fill="#0396fd"/><path d="M20.47,50.162H5.564a.857.857,0,0,1,0-1.714H20.47a.857.857,0,0,1,0,1.714Zm0,0" fill="#0396fd"/><path d="M20.47,54.3H5.564a.857.857,0,0,1,0-1.714H20.47a.857.857,0,0,1,0,1.714Zm0,0" fill="#0396fd"/><path d="M25.6,55.739a.857.857,0,0,1-.857-.857V14.732a.857.857,0,1,1,1.714,0v40.15A.857.857,0,0,1,25.6,55.739Zm0,0" fill="#838383"/><path d="M52.749,26.022H31.582a.941.941,0,0,1-.941-.941V17.109a.941.941,0,0,1,.941-.941H52.749a.941.941,0,0,1,.941.941V25.08a.941.941,0,0,1-.941.941Zm0,0" fill="#c9f0ff"/><path d="M53.691,17.108V25.08a.942.942,0,0,1-.942.942H49.911a.942.942,0,0,0,.941-.942V17.108a.941.941,0,0,0-.941-.941h2.838a.941.941,0,0,1,.942.941Zm0,0" fill="#9ae7fd"/><path d="M32.866,26.022l6.317-6.314a.706.706,0,0,1,1.028.031l5.576,6.284Zm0,0" fill="#00a8b0"/><path d="M41.005,26.022l5.013-5.01a.707.707,0,0,1,1.028.031l4.418,4.979Zm0,0" fill="#00a8b0"/><path d="M34.865,31.873H30.64a.857.857,0,1,1,0-1.714h4.226a.857.857,0,1,1,0,1.714Zm0,0" fill="#80e0dc"/><path d="M45.479,31.873h-7.66a.857.857,0,1,1,0-1.714h7.66a.857.857,0,0,1,0,1.714Zm0,0" fill="#80e0dc"/><path d="M53.691,31.873H49.029a.857.857,0,1,1,0-1.714h4.662a.857.857,0,0,1,0,1.714Zm0,0" fill="#80e0dc"/><path d="M35.994,35.225H30.64a.857.857,0,1,1,0-1.714h5.354a.857.857,0,0,1,0,1.714Zm0,0" fill="#80e0dc"/><path d="M48.486,35.225H39.414a.857.857,0,1,1,0-1.714h9.071a.857.857,0,1,1,0,1.714Zm0,0" fill="#80e0dc"/><path d="M53.691,35.225H51.609a.857.857,0,1,1,0-1.714h2.082a.857.857,0,0,1,0,1.714Zm0,0" fill="#80e0dc"/><path d="M52.749,54.228H31.582a.941.941,0,0,1-.941-.941V39.556a.941.941,0,0,1,.941-.941H52.749a.941.941,0,0,1,.941.941V53.287a.941.941,0,0,1-.941.941Zm0,0" fill="#ff5770"/><path d="M53.691,39.556V53.287a.942.942,0,0,1-.942.942h-2.47a.942.942,0,0,0,.942-.942V39.556a.942.942,0,0,0-.942-.942h2.47A.942.942,0,0,1,53.691,39.556Zm0,0" fill="#ff435f"/><path d="M44.8,45.708l-4.441-2.564a.823.823,0,0,0-1.235.713v5.127a.824.824,0,0,0,1.235.713L44.8,47.135a.823.823,0,0,0,0-1.426Zm0,0" fill="#e7e7e7"/><path d="M44.8,47.135,40.357,49.7a.823.823,0,0,1-1.235-.713v-.666l5.1-2.943.576.333A.823.823,0,0,1,44.8,47.135Zm0,0" fill="#cecece"/></g><g transform="translate(-99.954 70.741)"><path d="M55.508,0H3A3,3,0,0,0,0,3v52.5a3,3,0,0,0,3,3h52.5a3,3,0,0,0,3-3V3A3,3,0,0,0,55.508,0Zm0,0" fill="#8f1f8f"/><path d="M58.511,3v52.5a3,3,0,0,1-3,3h-3.1a3,3,0,0,0,3-3V3a3,3,0,0,0-3-3h3.1A3,3,0,0,1,58.511,3Zm0,0" fill="#8f1f8f"/><path d="M58.511,10.247H0V3A3,3,0,0,1,3,0h52.5a3,3,0,0,1,3,3Zm0,0" fill="#acacac"/><path d="M58.511,3v7.244h-3.1V3a3,3,0,0,0-3-3h3.1A3,3,0,0,1,58.511,3Zm0,0" fill="#9c9c9c"/><path d="M7.273,5.1A1.709,1.709,0,1,1,5.564,3.39,1.709,1.709,0,0,1,7.273,5.1Zm0,0" fill="#ff5770"/><path d="M13.872,5.1A1.709,1.709,0,1,1,12.163,3.39,1.708,1.708,0,0,1,13.872,5.1Zm0,0" fill="#ffd86e"/><path d="M20.47,5.1A1.709,1.709,0,1,1,18.762,3.39,1.708,1.708,0,0,1,20.47,5.1Zm0,0" fill="#80e0dc"/><path d="M7.273,5.1A1.707,1.707,0,0,1,4.387,6.334,1.707,1.707,0,0,0,5.525,3.391h.04A1.708,1.708,0,0,1,7.273,5.1Zm0,0" fill="#ff435f"/><path d="M13.871,5.1a1.708,1.708,0,0,1-2.887,1.235,1.707,1.707,0,0,0,1.14-2.943h.039A1.708,1.708,0,0,1,13.871,5.1Zm0,0" fill="#ffb509"/><path d="M20.47,5.1a1.708,1.708,0,0,1-2.887,1.235,1.707,1.707,0,0,0,1.139-2.943h.04A1.709,1.709,0,0,1,20.47,5.1Zm0,0" fill="#00a8b0"/><path d="M51.788,6.922H28.376a1.766,1.766,0,1,1,0-3.532H51.788a1.766,1.766,0,1,1,0,3.532Zm0,0" fill="#c9f0ff"/><path d="M53.553,5.156a1.764,1.764,0,0,1-1.765,1.766H48.956a1.766,1.766,0,0,0,0-3.531h2.832A1.765,1.765,0,0,1,53.553,5.156Zm0,0" fill="#9ae7fd"/><path d="M20.47,17.024H5.564a.857.857,0,0,1,0-1.714H20.47a.857.857,0,0,1,0,1.714Zm0,0" fill="#0396fd"/><path d="M20.47,21.166H5.564a.857.857,0,0,1,0-1.714H20.47a.857.857,0,0,1,0,1.714Zm0,0" fill="#0396fd"/><path d="M20.47,25.309H5.564a.857.857,0,0,1,0-1.714H20.47a.857.857,0,0,1,0,1.714Zm0,0" fill="#0396fd"/><path d="M20.47,29.451H5.564a.857.857,0,1,1,0-1.714H20.47a.857.857,0,0,1,0,1.714Zm0,0" fill="#0396fd"/><path d="M20.47,33.593H5.564a.857.857,0,1,1,0-1.714H20.47a.857.857,0,1,1,0,1.714Zm0,0" fill="#0396fd"/><path d="M20.47,37.735H5.564a.857.857,0,1,1,0-1.714H20.47a.857.857,0,1,1,0,1.714Zm0,0" fill="#0396fd"/><path d="M20.47,41.877H5.564a.857.857,0,1,1,0-1.714H20.47a.857.857,0,1,1,0,1.714Zm0,0" fill="#0396fd"/><path d="M20.47,46.02H5.564a.857.857,0,1,1,0-1.714H20.47a.857.857,0,1,1,0,1.714Zm0,0" fill="#0396fd"/><path d="M20.47,50.162H5.564a.857.857,0,0,1,0-1.714H20.47a.857.857,0,0,1,0,1.714Zm0,0" fill="#0396fd"/><path d="M20.47,54.3H5.564a.857.857,0,0,1,0-1.714H20.47a.857.857,0,0,1,0,1.714Zm0,0" fill="#0396fd"/><path d="M25.6,55.739a.857.857,0,0,1-.857-.857V14.732a.857.857,0,1,1,1.714,0v40.15A.857.857,0,0,1,25.6,55.739Zm0,0" fill="#838383"/><path d="M52.749,26.022H31.582a.941.941,0,0,1-.941-.941V17.109a.941.941,0,0,1,.941-.941H52.749a.941.941,0,0,1,.941.941V25.08a.941.941,0,0,1-.941.941Zm0,0" fill="#c9f0ff"/><path d="M53.691,17.108V25.08a.942.942,0,0,1-.942.942H49.911a.942.942,0,0,0,.941-.942V17.108a.941.941,0,0,0-.941-.941h2.838a.941.941,0,0,1,.942.941Zm0,0" fill="#9ae7fd"/><path d="M32.866,26.022l6.317-6.314a.706.706,0,0,1,1.028.031l5.576,6.284Zm0,0" fill="#00a8b0"/><path d="M41.005,26.022l5.013-5.01a.707.707,0,0,1,1.028.031l4.418,4.979Zm0,0" fill="#00a8b0"/><path d="M34.865,31.873H30.64a.857.857,0,1,1,0-1.714h4.226a.857.857,0,1,1,0,1.714Zm0,0" fill="#80e0dc"/><path d="M45.479,31.873h-7.66a.857.857,0,1,1,0-1.714h7.66a.857.857,0,0,1,0,1.714Zm0,0" fill="#80e0dc"/><path d="M53.691,31.873H49.029a.857.857,0,1,1,0-1.714h4.662a.857.857,0,0,1,0,1.714Zm0,0" fill="#80e0dc"/><path d="M35.994,35.225H30.64a.857.857,0,1,1,0-1.714h5.354a.857.857,0,0,1,0,1.714Zm0,0" fill="#80e0dc"/><path d="M48.486,35.225H39.414a.857.857,0,1,1,0-1.714h9.071a.857.857,0,1,1,0,1.714Zm0,0" fill="#80e0dc"/><path d="M53.691,35.225H51.609a.857.857,0,1,1,0-1.714h2.082a.857.857,0,0,1,0,1.714Zm0,0" fill="#80e0dc"/><path d="M52.749,54.228H31.582a.941.941,0,0,1-.941-.941V39.556a.941.941,0,0,1,.941-.941H52.749a.941.941,0,0,1,.941.941V53.287a.941.941,0,0,1-.941.941Zm0,0" fill="#ff5770"/><path d="M53.691,39.556V53.287a.942.942,0,0,1-.942.942h-2.47a.942.942,0,0,0,.942-.942V39.556a.942.942,0,0,0-.942-.942h2.47A.942.942,0,0,1,53.691,39.556Zm0,0" fill="#ff435f"/><path d="M44.8,45.708l-4.441-2.564a.823.823,0,0,0-1.235.713v5.127a.824.824,0,0,0,1.235.713L44.8,47.135a.823.823,0,0,0,0-1.426Zm0,0" fill="#e7e7e7"/><path d="M44.8,47.135,40.357,49.7a.823.823,0,0,1-1.235-.713v-.666l5.1-2.943.576.333A.823.823,0,0,1,44.8,47.135Zm0,0" fill="#cecece"/></g></g></svg>